<?xml version="1.0" encoding="UTF-8" standalone="no"?>
<svg
   xmlns:dc="http://purl.org/dc/elements/1.1/"
   xmlns:cc="http://creativecommons.org/ns#"
   xmlns:rdf="http://www.w3.org/1999/02/22-rdf-syntax-ns#"
   xmlns:svg="http://www.w3.org/2000/svg"
   xmlns="http://www.w3.org/2000/svg"
   xmlns:sodipodi="http://sodipodi.sourceforge.net/DTD/sodipodi-0.dtd"
   xmlns:inkscape="http://www.inkscape.org/namespaces/inkscape"
   width="150"
   height="150"
   viewBox="0 0 39.687498 39.687501"
   version="1.1"
   id="svg46"
   inkscape:version="1.0.2 (e86c870879, 2021-01-15)"
   sodipodi:docname="clock.svg"
   inkscape:export-filename="clock.png"
   inkscape:export-xdpi="298.78452"
   inkscape:export-ydpi="298.78452">
  <defs
     id="defs40" />
  <sodipodi:namedview
     id="base"
     pagecolor="#ffffff"
     bordercolor="#666666"
     borderopacity="1.0"
     inkscape:pageopacity="0.0"
     inkscape:pageshadow="2"
     inkscape:zoom="3.58"
     inkscape:cx="75"
     inkscape:cy="75"
     inkscape:document-units="px"
     inkscape:current-layer="layer1"
     inkscape:document-rotation="0"
     showgrid="false"
     units="px"
     inkscape:snap-global="false" />
  <metadata
     id="metadata43">
    <rdf:RDF>
      <cc:Work
         rdf:about="">
        <dc:format>image/svg+xml</dc:format>
        <dc:type
           rdf:resource="http://purl.org/dc/dcmitype/StillImage" />
        <dc:title />
        <cc:license
           rdf:resource="http://creativecommons.org/publicdomain/zero/1.0/" />
      </cc:Work>
      <cc:License
         rdf:about="http://creativecommons.org/publicdomain/zero/1.0/">
        <cc:permits
           rdf:resource="http://creativecommons.org/ns#Reproduction" />
        <cc:permits
           rdf:resource="http://creativecommons.org/ns#Distribution" />
        <cc:permits
           rdf:resource="http://creativecommons.org/ns#DerivativeWorks" />
      </cc:License>
    </rdf:RDF>
  </metadata>
  <g
     inkscape:label="Camada 1"
     inkscape:groupmode="layer"
     id="layer1">
    <path
       id="ellipse55"
       style="font-variation-settings:normal;vector-effect:none;fill:none;fill-opacity:1;fill-rule:evenodd;stroke:#000000;stroke-width:0.140841;stroke-linecap:butt;stroke-linejoin:miter;stroke-miterlimit:4;stroke-dasharray:none;stroke-dashoffset:0;stroke-opacity:1;stop-color:#000000"
       d="M 19.801118,0.03747109 A 19.611156,19.806215 0 0 0 0.23280163,19.843498 19.611156,19.806215 0 0 0 19.843491,39.65004 19.611156,19.806215 0 0 0 39.454698,19.843498 19.611156,19.806215 0 0 0 19.843491,0.03747109 a 19.611156,19.806215 0 0 0 -0.04237,0 z m -0.477491,1.77921941 0.08578,1.5203207 h 0.87023 l 0.08682,-1.5203207 a 17.857138,18.03475 0 0 1 1.180291,0.074414 l -0.04341,0.8893516 0.265099,0.026872 0.143661,-0.8764323 a 17.857138,18.03475 0 0 1 1.501201,0.2423626 L 23.278941,3.04659 23.538873,3.102401 23.771418,2.2507734 a 17.857138,18.03475 0 0 1 1.466575,0.4004921 l -0.223242,0.8474935 0.255283,0.080615 0.315743,-0.8128703 a 17.857138,18.03475 0 0 1 1.415934,0.5550048 l -0.30489,0.8066693 0.244427,0.1090372 0.393258,-0.7648112 a 17.857138,18.03475 0 0 1 1.053682,0.5353677 l -0.668692,1.3249838 0.754475,0.4345988 0.80822,-1.2329996 A 17.857138,18.03475 0 0 1 30.26301,5.197363 l -0.449586,0.6996991 0.217043,0.1555459 0.523481,-0.6397543 a 17.857138,18.03475 0 0 1 1.172022,0.9684165 l -0.507979,0.6320028 0.196887,0.1788004 0.57516,-0.5684409 a 17.857138,18.03475 0 0 1 1.064532,1.0862387 l -0.55862,0.5637898 0.1788,0.1979207 0.615466,-0.4945433 a 17.857138,18.03475 0 0 1 0.947229,1.1926925 l -0.599963,0.489376 0.15503,0.21704 0.650089,-0.417545 a 17.857138,18.03475 0 0 1 0.643887,0.9906371 l -1.166855,0.764811 0.435634,0.754476 1.238168,-0.624251 a 17.857138,18.03475 0 0 1 0.519348,1.065051 l -0.660426,0.341064 0.108005,0.242363 0.692981,-0.262 a 17.857138,18.03475 0 0 1 0.535366,1.42472 l -0.680061,0.265616 0.08268,0.253732 0.703834,-0.185519 a 17.857138,18.03475 0 0 1 0.38654,1.471745 l -0.696081,0.189653 0.05581,0.259932 0.711068,-0.109037 a 17.857138,18.03475 0 0 1 0.233579,1.504301 l -0.705384,0.114205 0.02842,0.266133 0.712618,-0.03462 a 17.857138,18.03475 0 0 1 0.07183,1.18184 l -1.344104,0.07648 v 0.870231 l 1.344104,0.07597 a 17.857138,18.03475 0 0 1 -0.07183,1.182356 l -0.712618,-0.03411 -0.02842,0.266134 0.704866,0.114721 a 17.857138,18.03475 0 0 1 -0.233061,1.502751 l -0.711068,-0.109554 -0.05581,0.263033 0.695563,0.189136 a 17.857138,18.03475 0 0 1 -0.387057,1.47226 l -0.702799,-0.185517 -0.08423,0.253732 0.681096,0.264065 a 17.857138,18.03475 0 0 1 -0.535886,1.423683 l -0.691946,-0.263033 -0.108005,0.24598 0.659391,0.338482 a 17.857138,18.03475 0 0 1 -0.518832,1.0635 l -1.237649,-0.623734 -0.435634,0.752925 1.166855,0.765328 a 17.857138,18.03475 0 0 1 -0.645956,0.994254 l -0.64802,-0.416512 -0.158647,0.213939 0.600995,0.491445 a 17.857138,18.03475 0 0 1 -0.94671,1.191141 l -0.61495,-0.493508 -0.1788,0.197919 0.558104,0.562758 a 17.857138,18.03475 0 0 1 -1.064017,1.085204 l -0.573609,-0.568441 -0.198437,0.179316 0.507463,0.632005 a 17.857138,18.03475 0 0 1 -1.173057,0.968933 l -0.523481,-0.640273 -0.213942,0.158647 0.448035,0.696081 a 17.857138,18.03475 0 0 1 -0.979784,0.662493 l -0.807704,-1.231966 -0.754475,0.43615 0.668692,1.322398 a 17.857138,18.03475 0 0 1 -1.056783,0.535884 l -0.392223,-0.76481 -0.245462,0.109554 0.305924,0.806153 a 17.857138,18.03475 0 0 1 -1.415933,0.553972 l -0.315228,-0.811321 -0.256831,0.08062 0.224274,0.84646 a 17.857138,18.03475 0 0 1 -1.466059,0.399976 l -0.232544,-0.848529 -0.261483,0.05374 0.134874,0.873332 a 17.857138,18.03475 0 0 1 -1.500682,0.241845 l -0.143145,-0.875398 -0.265099,0.02842 0.04238,0.88625 a 17.857138,18.03475 0 0 1 -1.177708,0.07442 l -0.08682,-1.521871 h -0.87023 l -0.08578,1.521871 a 17.857138,18.03475 0 0 1 -1.182873,-0.07442 l 0.04341,-0.88625 -0.266649,-0.02842 -0.143145,0.874882 a 17.857138,18.03475 0 0 1 -1.499651,-0.241845 l 0.133843,-0.872816 -0.259932,-0.05374 -0.231511,0.848529 a 17.857138,18.03475 0 0 1 -1.467093,-0.401011 l 0.222723,-0.845425 -0.256831,-0.08062 -0.315227,0.810802 A 17.857138,18.03475 0 0 1 12.686311,36.366003 L 12.990685,35.560884 12.746255,35.45133 12.353,36.215108 a 17.857138,18.03475 0 0 1 -1.052141,-0.534334 l 0.667145,-1.322916 -0.754476,-0.43615 -0.807704,1.231966 A 17.857138,18.03475 0 0 1 9.4250057,34.490665 l 0.4490689,-0.697116 -0.2175589,-0.157096 -0.522448,0.638722 a 17.857138,18.03475 0 0 1 -1.172539,-0.968933 l 0.507979,-0.633553 -0.198437,-0.179318 -0.574125,0.569992 A 17.857138,18.03475 0 0 1 6.6329297,31.97764 l 0.557069,-0.56224 -0.179316,-0.199988 -0.614434,0.494027 a 17.857138,18.03475 0 0 1 -0.94516,-1.19114 l 0.598929,-0.489892 -0.15503,-0.216009 -0.649573,0.417544 a 17.857138,18.03475 0 0 1 -0.644403,-0.991669 l 1.166852,-0.765328 -0.435631,-0.752925 -1.237652,0.623734 a 17.857138,18.03475 0 0 1 -0.519864,-1.065051 l 0.660426,-0.340032 -0.109556,-0.24443 -0.69143,0.262517 a 17.857138,18.03475 0 0 1 -0.535885,-1.425236 l 0.67903,-0.264068 -0.08113,-0.253213 -0.703318,0.18552 a 17.857138,18.03475 0 0 1 -0.38654,-1.471229 l 0.695047,-0.188619 -0.05684,-0.26355 -0.70952,0.109037 a 17.857138,18.03475 0 0 1 -0.233577,-1.502234 l 0.705385,-0.114205 -0.02842,-0.267684 -0.712618,0.03462 a 17.857138,18.03475 0 0 1 -0.07183,-1.179773 l 1.343589,-0.07597 v -0.870231 l -1.343589,-0.07648 a 17.857138,18.03475 0 0 1 0.07183,-1.184424 l 0.712618,0.03411 0.02842,-0.264584 -0.705385,-0.114721 a 17.857138,18.03475 0 0 1 0.233577,-1.504301 l 0.70952,0.109554 0.05684,-0.261483 -0.695047,-0.189652 a 17.857138,18.03475 0 0 1 0.386538,-1.471228 l 0.703318,0.185001 0.08423,-0.253731 -0.681096,-0.2651 a 17.857138,18.03475 0 0 1 0.535366,-1.422136 l 0.690914,0.262 0.109556,-0.243913 -0.65991,-0.341064 a 17.857138,18.03475 0 0 1 0.518832,-1.063501 l 1.238168,0.624251 0.435631,-0.754476 -1.166852,-0.764811 a 17.857138,18.03475 0 0 1 0.644921,-0.9927041 l 0.649055,0.418062 0.158131,-0.218591 -0.60048,-0.489376 a 17.857138,18.03475 0 0 1 0.944132,-1.18907 L 7.0137836,8.4715814 7.1930996,8.2721105 6.6339606,7.7083207 A 17.857138,18.03475 0 0 1 7.6990126,6.6225988 L 8.2710706,7.1905226 8.4710586,7.0132727 7.9630796,6.3802362 A 17.857138,18.03475 0 0 1 9.1356176,5.4107865 L 9.6580666,6.0510575 9.8740746,5.8939611 9.4250056,5.196846 A 17.857138,18.03475 0 0 1 10.405308,4.5338375 L 11.213528,5.7673538 11.968004,5.332755 11.300859,4.0067377 A 17.857138,18.03475 0 0 1 12.354544,3.4718868 L 12.7478,4.2356645 12.99378,4.126627 12.68734,3.3209914 a 17.857138,18.03475 0 0 1 1.415933,-0.5550048 l 0.315743,0.8133871 0.255281,-0.083716 -0.223242,-0.8443931 a 17.857138,18.03475 0 0 1 1.466061,-0.4010091 l 0.233061,0.8521446 0.261483,-0.057361 -0.134877,-0.8722982 a 17.857138,18.03475 0 0 1 1.500169,-0.2423625 l 0.143658,0.876949 0.265102,-0.026872 -0.04341,-0.8893516 a 17.857138,18.03475 0 0 1 1.181323,-0.074414 z" />
    <path
       id="ellipse172"
       style="font-variation-settings:normal;vector-effect:none;fill:#070707;fill-opacity:1;fill-rule:evenodd;stroke:none;stroke-width:0.128244;stroke-linecap:butt;stroke-linejoin:miter;stroke-miterlimit:4;stroke-dasharray:none;stroke-dashoffset:0;stroke-opacity:1;stop-color:#000000"
       d="m 19.322409,1.8167276 a 17.857138,18.03475 0 0 0 -0.18035,0.0062 17.857138,18.03475 0 0 0 -0.18242,0.00827 17.857138,18.03475 0 0 0 -0.14211,0.00775 17.857138,18.03475 0 0 0 -0.07958,0.00465 17.857138,18.03475 0 0 0 -0.103351,0.00672 17.857138,18.03475 0 0 0 -0.07751,0.00568 17.857138,18.03475 0 0 0 -0.102836,0.00775 17.857138,18.03475 0 0 0 -0.04031,0.0031 17.857138,18.03475 0 0 0 -0.09095,0.00775 17.857138,18.03475 0 0 0 -0.177766,0.01602 17.857138,18.03475 0 0 0 -0.0041,5.167e-4 l 0.04341,0.8893514 -0.265099,0.026872 -0.143661,-0.876949 a 17.857138,18.03475 0 0 0 -0.06046,0.00723 17.857138,18.03475 0 0 0 -0.124023,0.015503 17.857138,18.03475 0 0 0 -0.07596,0.00982 17.857138,18.03475 0 0 0 -0.0078,0.00103 17.857138,18.03475 0 0 0 -0.153996,0.021187 17.857138,18.03475 0 0 0 -0.134876,0.019637 17.857138,18.03475 0 0 0 -0.05684,0.00878 17.857138,18.03475 0 0 0 -0.0155,0.00207 17.857138,18.03475 0 0 0 -0.15348,0.024805 17.857138,18.03475 0 0 0 -0.116271,0.019637 17.857138,18.03475 0 0 0 -0.08372,0.013953 17.857138,18.03475 0 0 0 -0.03101,0.00568 17.857138,18.03475 0 0 0 -0.128157,0.022738 17.857138,18.03475 0 0 0 -0.02687,0.00517 17.857138,18.03475 0 0 0 -0.16433,0.031523 17.857138,18.03475 0 0 0 -0.01447,0.00258 17.857138,18.03475 0 0 0 -0.152445,0.031006 l 0.134876,0.8722982 -0.261482,0.057361 -0.233061,-0.8521446 a 17.857138,18.03475 0 0 0 -0.04186,0.0093 17.857138,18.03475 0 0 0 -0.01705,0.00413 17.857138,18.03475 0 0 0 -0.142111,0.03359 17.857138,18.03475 0 0 0 -0.176733,0.043408 17.857138,18.03475 0 0 0 -0.176734,0.045475 17.857138,18.03475 0 0 0 -0.108519,0.028939 17.857138,18.03475 0 0 0 -0.09043,0.024288 17.857138,18.03475 0 0 0 -0.01292,0.00362 17.857138,18.03475 0 0 0 -0.14056,0.039274 17.857138,18.03475 0 0 0 -0.150378,0.043408 17.857138,18.03475 0 0 0 -0.03566,0.010335 17.857138,18.03475 0 0 0 -0.05219,0.015503 17.857138,18.03475 0 0 0 -0.146762,0.044959 17.857138,18.03475 0 0 0 -0.139009,0.043408 17.857138,18.03475 0 0 0 -0.03514,0.011369 L 14.673088,3.4956711 14.417807,3.5793871 14.102064,2.766 a 17.857138,18.03475 0 0 0 -0.120407,0.041858 17.857138,18.03475 0 0 0 -0.04341,0.015503 17.857138,18.03475 0 0 0 -0.110072,0.039274 17.857138,18.03475 0 0 0 -0.10232,0.037724 17.857138,18.03475 0 0 0 -0.03514,0.012919 17.857138,18.03475 0 0 0 -0.135909,0.050643 17.857138,18.03475 0 0 0 -0.04961,0.01912 17.857138,18.03475 0 0 0 -0.144695,0.05581 17.857138,18.03475 0 0 0 -5.16e-4,5.167e-4 17.857138,18.03475 0 0 0 -5.16e-4,0 17.857138,18.03475 0 0 0 -0.153996,0.061495 17.857138,18.03475 0 0 0 -0.02739,0.011369 17.857138,18.03475 0 0 0 -0.156581,0.064596 17.857138,18.03475 0 0 0 -0.144692,0.060978 17.857138,18.03475 0 0 0 -0.03669,0.015503 17.857138,18.03475 0 0 0 -0.153998,0.067696 L 12.992565,4.12664 12.746584,4.2356775 12.353326,3.4718998 a 17.857138,18.03475 0 0 0 -0.0093,0.00413 17.857138,18.03475 0 0 0 -0.06615,0.031006 17.857138,18.03475 0 0 0 -0.0021,0.00103 17.857138,18.03475 0 0 0 -0.162779,0.078031 17.857138,18.03475 0 0 0 -0.0021,0.00103 17.857138,18.03475 0 0 0 -0.163298,0.080098 17.857138,18.03475 0 0 0 -5.16e-4,5.167e-4 17.857138,18.03475 0 0 0 -0.161232,0.081132 17.857138,18.03475 0 0 0 -0.0021,0.00103 17.857138,18.03475 0 0 0 -0.160197,0.082682 17.857138,18.03475 0 0 0 -0.03876,0.020671 17.857138,18.03475 0 0 0 -0.122991,0.065112 17.857138,18.03475 0 0 0 -0.0016,0.00103 17.857138,18.03475 0 0 0 -0.158646,0.0863 17.857138,18.03475 0 0 0 -0.0021,0.00103 l 0.667327,1.3260633 -0.754475,0.4345988 -0.808221,-1.2335163 a 17.857138,18.03475 0 0 0 -0.04651,0.029456 17.857138,18.03475 0 0 0 -0.02635,0.016536 17.857138,18.03475 0 0 0 -0.12764,0.082166 17.857138,18.03475 0 0 0 -0.152961,0.1002522 17.857138,18.03475 0 0 0 -0.02584,0.017053 17.857138,18.03475 0 0 0 -0.1260893,0.08475 17.857138,18.03475 0 0 0 -0.150895,0.1033529 17.857138,18.03475 0 0 0 -0.149863,0.104903 17.857138,18.03475 0 0 0 -0.148828,0.1064535 17.857138,18.03475 0 0 0 -0.02532,0.018087 L 9.8728577,5.893999 9.6568527,6.0510954 9.1344037,5.4113411 a 17.857138,18.03475 0 0 0 -0.125058,0.095601 17.857138,18.03475 0 0 0 -0.144696,0.1126548 17.857138,18.03475 0 0 0 -0.129706,0.1033526 17.857138,18.03475 0 0 0 -0.03411,0.026872 17.857138,18.03475 0 0 0 -0.07131,0.057878 17.857138,18.03475 0 0 0 -0.09973,0.082166 17.857138,18.03475 0 0 0 -0.03721,0.030489 17.857138,18.03475 0 0 0 -0.08578,0.072347 17.857138,18.03475 0 0 0 -0.07441,0.063045 17.857138,18.03475 0 0 0 -0.07235,0.062012 17.857138,18.03475 0 0 0 -0.03462,0.029456 17.857138,18.03475 0 0 0 -0.126608,0.1111044 17.857138,18.03475 0 0 0 -0.13694,0.1219565 l 0.507978,0.6330362 -0.199988,0.1772502 -0.572058,-0.5679241 a 17.857138,18.03475 0 0 0 -0.04031,0.037724 17.857138,18.03475 0 0 0 -0.132808,0.1266074 17.857138,18.03475 0 0 0 -0.131257,0.1276408 17.857138,18.03475 0 0 0 -0.08682,0.085783 17.857138,18.03475 0 0 0 -0.04341,0.042891 17.857138,18.03475 0 0 0 -0.03721,0.037724 17.857138,18.03475 0 0 0 -0.11834,0.1198894 17.857138,18.03475 0 0 0 -0.03101,0.032556 17.857138,18.03475 0 0 0 -0.104387,0.1080037 17.857138,18.03475 0 0 0 -0.01085,0.011886 17.857138,18.03475 0 0 0 -0.107487,0.1142047 17.857138,18.03475 0 0 0 -0.03772,0.040308 17.857138,18.03475 0 0 0 -0.07131,0.077515 17.857138,18.03475 0 0 0 -0.08527,0.093018 17.857138,18.03475 0 0 0 -0.02687,0.029972 l 0.559134,0.5637866 -0.179319,0.1994709 -0.617016,-0.4940265 a 17.857138,18.03475 0 0 0 -0.03721,0.043408 17.857138,18.03475 0 0 0 -0.0026,0.00258 17.857138,18.03475 0 0 0 -0.112654,0.1322916 17.857138,18.03475 0 0 0 -0.0062,0.00723 17.857138,18.03475 0 0 0 -0.111104,0.1338418 17.857138,18.03475 0 0 0 -0.07752,0.094568 17.857138,18.03475 0 0 0 -0.04341,0.053227 17.857138,18.03475 0 0 0 -0.0016,0.00155 17.857138,18.03475 0 0 0 -0.108003,0.1359091 17.857138,18.03475 0 0 0 -0.113173,0.1441769 17.857138,18.03475 0 0 0 -0.0062,0.0078 17.857138,18.03475 0 0 0 -0.10542,0.1379749 17.857138,18.03475 0 0 0 -0.0832,0.110071 17.857138,18.03475 0 0 0 -0.02739,0.03669 17.857138,18.03475 0 0 0 -0.0057,0.0078 17.857138,18.03475 0 0 0 -0.102839,0.140043 L 6.0518077,9.656129 5.8936767,9.87472 5.2446197,9.456658 a 17.857138,18.03475 0 0 0 -0.0078,0.01085 17.857138,18.03475 0 0 0 -0.0083,0.0124 17.857138,18.03475 0 0 0 -0.06408,0.09302 17.857138,18.03475 0 0 0 -0.06098,0.08888 17.857138,18.03475 0 0 0 -0.03152,0.04703 17.857138,18.03475 0 0 0 -0.05633,0.08423 17.857138,18.03475 0 0 0 -0.08423,0.128157 17.857138,18.03475 0 0 0 -0.01602,0.02481 17.857138,18.03475 0 0 0 -0.03256,0.05013 17.857138,18.03475 0 0 0 -0.08992,0.14056 17.857138,18.03475 0 0 0 -0.09198,0.146761 17.857138,18.03475 0 0 0 -0.01602,0.02687 17.857138,18.03475 0 0 0 -0.08527,0.139009 l 1.166854,0.764812 -0.435631,0.754475 -1.237652,-0.624251 a 17.857138,18.03475 0 0 0 -0.0057,0.01034 17.857138,18.03475 0 0 0 -0.07235,0.137976 17.857138,18.03475 0 0 0 -0.02584,0.04961 17.857138,18.03475 0 0 0 -0.04961,0.09767 17.857138,18.03475 0 0 0 -0.03307,0.06615 17.857138,18.03475 0 0 0 -0.06459,0.130225 17.857138,18.03475 0 0 0 -0.0067,0.01395 17.857138,18.03475 0 0 0 -0.05633,0.116272 17.857138,18.03475 0 0 0 -0.0217,0.04496 17.857138,18.03475 0 0 0 -0.02946,0.06253 17.857138,18.03475 0 0 0 -0.07286,0.155029 17.857138,18.03475 0 0 0 -0.02584,0.05684 17.857138,18.03475 0 0 0 -0.03772,0.0832 17.857138,18.03475 0 0 0 -0.01757,0.03876 l 0.659908,0.341064 -0.109553,0.243913 -0.690915,-0.261999 a 17.857138,18.03475 0 0 0 -0.0186,0.04444 17.857138,18.03475 0 0 0 -5.16e-4,0.001 17.857138,18.03475 0 0 0 -0.07028,0.168982 17.857138,18.03475 0 0 0 -0.06925,0.170532 17.857138,18.03475 0 0 0 -0.06149,0.15658 17.857138,18.03475 0 0 0 -0.0078,0.02067 17.857138,18.03475 0 0 0 -0.188619,0.511597 17.857138,18.03475 0 0 0 -0.06046,0.173633 17.857138,18.03475 0 0 0 -0.0584,0.174666 l 0.681096,0.2651 -0.08423,0.253731 -0.703316,-0.185001 a 17.857138,18.03475 0 0 0 -0.0021,0.0067 17.857138,18.03475 0 0 0 -0.01551,0.05116 17.857138,18.03475 0 0 0 -0.03669,0.12144 17.857138,18.03475 0 0 0 -0.0186,0.06304 17.857138,18.03475 0 0 0 -0.02274,0.07906 17.857138,18.03475 0 0 0 -0.03204,0.112138 17.857138,18.03475 0 0 0 -0.0041,0.01447 17.857138,18.03475 0 0 0 -0.03566,0.129191 17.857138,18.03475 0 0 0 -0.04548,0.171048 17.857138,18.03475 0 0 0 -0.0036,0.01292 17.857138,18.03475 0 0 0 -0.01085,0.04186 17.857138,18.03475 0 0 0 -0.03307,0.130741 17.857138,18.03475 0 0 0 -0.04392,0.178284 17.857138,18.03475 0 0 0 -0.04186,0.179317 17.857138,18.03475 0 0 0 -0.04031,0.179834 l 0.69505,0.189652 -0.05685,0.261483 -0.709517,-0.109554 a 17.857138,18.03475 0 0 0 -0.0098,0.05013 17.857138,18.03475 0 0 0 -0.0036,0.01705 17.857138,18.03475 0 0 0 -0.03049,0.162781 17.857138,18.03475 0 0 0 -0.03256,0.180868 17.857138,18.03475 0 0 0 -0.02946,0.172082 17.857138,18.03475 0 0 0 -0.0021,0.0124 17.857138,18.03475 0 0 0 -0.0026,0.0155 17.857138,18.03475 0 0 0 -0.02584,0.163297 17.857138,18.03475 0 0 0 -0.0522,0.364836 17.857138,18.03475 0 0 0 -0.0026,0.0186 17.857138,18.03475 0 0 0 -0.02067,0.163814 17.857138,18.03475 0 0 0 -0.01809,0.151929 17.857138,18.03475 0 0 0 -0.0036,0.03101 l 0.705382,0.114722 -0.02842,0.264583 -0.712618,-0.03411 a 17.857138,18.03475 0 0 0 -0.0026,0.02687 17.857138,18.03475 0 0 0 -10e-4,0.01292 17.857138,18.03475 0 0 0 -0.0036,0.04186 17.857138,18.03475 0 0 0 -0.0155,0.183452 17.857138,18.03475 0 0 0 -0.01344,0.183451 17.857138,18.03475 0 0 0 -0.01033,0.15658 17.857138,18.03475 0 0 0 -0.0057,0.103353 17.857138,18.03475 0 0 0 -0.0047,0.08888 17.857138,18.03475 0 0 0 -0.0036,0.077 17.857138,18.03475 0 0 0 -0.0052,0.125573 17.857138,18.03475 0 0 0 0,0.0016 17.857138,18.03475 0 0 0 -0.0062,0.182934 l 1.343586,0.07648 v 0.870232 l -1.343586,0.07596 a 17.857138,18.03475 0 0 0 5.16e-4,0.01137 17.857138,18.03475 0 0 0 0.0041,0.117305 17.857138,18.03475 0 0 0 0.0036,0.100253 17.857138,18.03475 0 0 0 0.0026,0.06408 17.857138,18.03475 0 0 0 0.0072,0.151929 17.857138,18.03475 0 0 0 0.02325,0.367936 17.857138,18.03475 0 0 0 0.01447,0.183452 17.857138,18.03475 0 0 0 0.01602,0.183451 l 0.712618,-0.03462 0.02842,0.267684 -0.705382,0.114205 a 17.857138,18.03475 0 0 0 0.0057,0.04754 17.857138,18.03475 0 0 0 0.02016,0.171049 17.857138,18.03475 0 0 0 0.0041,0.03049 17.857138,18.03475 0 0 0 0.0217,0.163814 17.857138,18.03475 0 0 0 0.08268,0.54622 17.857138,18.03475 0 0 0 0.03101,0.181384 17.857138,18.03475 0 0 0 0.06821,0.361735 l 0.709517,-0.109037 0.05685,0.26355 -0.69505,0.188619 a 17.857138,18.03475 0 0 0 0.04909,0.219625 17.857138,18.03475 0 0 0 0.0036,0.01395 17.857138,18.03475 0 0 0 0.08527,0.351917 17.857138,18.03475 0 0 0 0.09405,0.355534 17.857138,18.03475 0 0 0 0.04961,0.17725 17.857138,18.03475 0 0 0 0.05168,0.176733 17.857138,18.03475 0 0 0 0.05323,0.176216 l 0.703316,-0.185517 0.08113,0.253213 -0.679027,0.264068 a 17.857138,18.03475 0 0 0 0.07493,0.223242 17.857138,18.03475 0 0 0 0.0083,0.02429 17.857138,18.03475 0 0 0 0.05271,0.149344 17.857138,18.03475 0 0 0 0.04651,0.130741 17.857138,18.03475 0 0 0 0.02274,0.06149 17.857138,18.03475 0 0 0 0.0067,0.01809 17.857138,18.03475 0 0 0 0.05943,0.159163 17.857138,18.03475 0 0 0 0.05684,0.147796 17.857138,18.03475 0 0 0 0.0677,0.171048 17.857138,18.03475 0 0 0 0.0093,0.02325 17.857138,18.03475 0 0 0 0.05994,0.147278 17.857138,18.03475 0 0 0 0.06615,0.158131 17.857138,18.03475 0 0 0 0.0047,0.01137 l 0.691431,-0.262517 0.109553,0.24443 -0.659908,0.340032 a 17.857138,18.03475 0 0 0 0.01654,0.03772 17.857138,18.03475 0 0 0 0.03514,0.07752 17.857138,18.03475 0 0 0 0.05891,0.127124 17.857138,18.03475 0 0 0 0.07441,0.157612 17.857138,18.03475 0 0 0 0.01705,0.03617 17.857138,18.03475 0 0 0 0.06305,0.129709 17.857138,18.03475 0 0 0 0.01705,0.03514 17.857138,18.03475 0 0 0 0.06718,0.134358 17.857138,18.03475 0 0 0 0.0016,0.0031 17.857138,18.03475 0 0 0 0.0646,0.127124 17.857138,18.03475 0 0 0 0.06615,0.12764 17.857138,18.03475 0 0 0 0.03772,0.07183 l 1.237652,-0.623737 0.435631,0.752928 -1.166854,0.765328 a 17.857138,18.03475 0 0 0 0.01705,0.02842 17.857138,18.03475 0 0 0 0.02532,0.04082 17.857138,18.03475 0 0 0 0.08268,0.134361 17.857138,18.03475 0 0 0 0.05012,0.07958 17.857138,18.03475 0 0 0 0.0584,0.0925 17.857138,18.03475 0 0 0 0.01189,0.0186 17.857138,18.03475 0 0 0 0.08475,0.131257 17.857138,18.03475 0 0 0 0.01912,0.02946 17.857138,18.03475 0 0 0 0.08837,0.133327 17.857138,18.03475 0 0 0 0.09509,0.141075 17.857138,18.03475 0 0 0 0.0072,0.01085 17.857138,18.03475 0 0 0 0.104386,0.15141 l 0.649573,-0.417544 0.15503,0.216006 -0.59893,0.489894 a 17.857138,18.03475 0 0 0 0.02842,0.03927 17.857138,18.03475 0 0 0 0.0072,0.0093 17.857138,18.03475 0 0 0 0.09767,0.132292 17.857138,18.03475 0 0 0 0.01344,0.01809 17.857138,18.03475 0 0 0 0.104386,0.137975 17.857138,18.03475 0 0 0 0.112138,0.145727 17.857138,18.03475 0 0 0 0.228409,0.286805 17.857138,18.03475 0 0 0 0.116274,0.141595 17.857138,18.03475 0 0 0 0.110585,0.131773 17.857138,18.03475 0 0 0 0.01912,0.02222 17.857138,18.03475 0 0 0 0.107487,0.12609 l 0.614434,-0.494027 0.179316,0.199988 -0.557072,0.562239 a 17.857138,18.03475 0 0 0 0.03669,0.04031 17.857138,18.03475 0 0 0 0.124024,0.13539 17.857138,18.03475 0 0 0 0.125058,0.133842 17.857138,18.03475 0 0 0 0.09818,0.103354 17.857138,18.03475 0 0 0 0.04909,0.05168 17.857138,18.03475 0 0 0 0.0646,0.06563 17.857138,18.03475 0 0 0 0.05633,0.05736 17.857138,18.03475 0 0 0 0.08113,0.08165 17.857138,18.03475 0 0 0 0.04289,0.04289 17.857138,18.03475 0 0 0 0.077,0.07648 17.857138,18.03475 0 0 0 0.06718,0.06563 17.857138,18.03475 0 0 0 0.06201,0.05994 17.857138,18.03475 0 0 0 0.06253,0.05994 17.857138,18.03475 0 0 0 0.04961,0.04754 17.857138,18.03475 0 0 0 0.06821,0.06356 l 0.573608,-0.569474 0.198438,0.179317 -0.507979,0.633555 a 17.857138,18.03475 0 0 0 0.0155,0.01344 17.857138,18.03475 0 0 0 0.02584,0.02377 17.857138,18.03475 0 0 0 0.0016,10e-4 17.857138,18.03475 0 0 0 0.135908,0.120404 17.857138,18.03475 0 0 0 0.001,10e-4 17.857138,18.03475 0 0 0 0.136943,0.118856 17.857138,18.03475 0 0 0 0.001,10e-4 17.857138,18.03475 0 0 0 0.138493,0.117306 17.857138,18.03475 0 0 0 0.001,10e-4 17.857138,18.03475 0 0 0 0.140044,0.116274 17.857138,18.03475 0 0 0 10e-4,0.001 17.857138,18.03475 0 0 0 0.140557,0.114724 17.857138,18.03475 0 0 0 0.05891,0.04702 17.857138,18.03475 0 0 0 0.08423,0.06718 17.857138,18.03475 0 0 0 0.001,5.15e-4 17.857138,18.03475 0 0 0 0.143142,0.112139 17.857138,18.03475 0 0 0 10e-4,10e-4 17.857138,18.03475 0 0 0 0.145211,0.111104 l 0.522449,-0.638721 0.217556,0.157097 -0.449066,0.697116 a 17.857138,18.03475 0 0 0 0.01344,0.0098 17.857138,18.03475 0 0 0 0.107487,0.077 17.857138,18.03475 0 0 0 0.05581,0.03928 17.857138,18.03475 0 0 0 0.07906,0.05581 17.857138,18.03475 0 0 0 0.108006,0.07441 17.857138,18.03475 0 0 0 0.01137,0.0083 17.857138,18.03475 0 0 0 0.121438,0.08268 17.857138,18.03475 0 0 0 0.0739,0.04909 17.857138,18.03475 0 0 0 0.06563,0.04393 17.857138,18.03475 0 0 0 0.06046,0.03979 17.857138,18.03475 0 0 0 0.130226,0.08475 17.857138,18.03475 0 0 0 0.12919,0.08268 17.857138,18.03475 0 0 0 0.02481,0.0155 l 0.807702,-1.231966 0.754475,0.436147 -0.667142,1.322401 a 17.857138,18.03475 0 0 0 0.0739,0.04083 17.857138,18.03475 0 0 0 0.01757,0.0093 17.857138,18.03475 0 0 0 0.14366,0.077 17.857138,18.03475 0 0 0 0.137978,0.07286 17.857138,18.03475 0 0 0 0.04392,0.02274 17.857138,18.03475 0 0 0 0.131776,0.06718 17.857138,18.03475 0 0 0 0.01809,0.0088 17.857138,18.03475 0 0 0 0.05684,0.02894 17.857138,18.03475 0 0 0 0.09922,0.04909 17.857138,18.03475 0 0 0 0.135908,0.06615 17.857138,18.03475 0 0 0 0.06408,0.03101 17.857138,18.03475 0 0 0 0.129191,0.06098 l 0.393258,-0.763778 0.24443,0.109553 -0.304374,0.80512 a 17.857138,18.03475 0 0 0 0.05426,0.02377 17.857138,18.03475 0 0 0 0.01137,0.0052 17.857138,18.03475 0 0 0 0.156065,0.06718 17.857138,18.03475 0 0 0 0.507462,0.206706 17.857138,18.03475 0 0 0 0.01137,0.0047 17.857138,18.03475 0 0 0 0.159162,0.06098 17.857138,18.03475 0 0 0 0.314709,0.115755 17.857138,18.03475 0 0 0 0.02791,0.0098 17.857138,18.03475 0 0 0 0.01188,0.0041 17.857138,18.03475 0 0 0 0.160197,0.05581 l 0.315227,-0.810287 0.256831,0.08062 -0.222726,0.845426 a 17.857138,18.03475 0 0 0 0.0093,0.0031 17.857138,18.03475 0 0 0 0.04961,0.0155 17.857138,18.03475 0 0 0 0.172598,0.05374 17.857138,18.03475 0 0 0 0.0057,0.0016 17.857138,18.03475 0 0 0 0.171048,0.05116 17.857138,18.03475 0 0 0 0.175183,0.05064 17.857138,18.03475 0 0 0 0.1757,0.04858 17.857138,18.03475 0 0 0 0.176217,0.04702 17.857138,18.03475 0 0 0 0.17725,0.04496 17.857138,18.03475 0 0 0 0.176734,0.04341 17.857138,18.03475 0 0 0 0.174148,0.04031 17.857138,18.03475 0 0 0 0.0036,10e-4 l 0.23151,-0.848527 0.259932,0.05374 -0.133842,0.872297 a 17.857138,18.03475 0 0 0 0.09974,0.02015 17.857138,18.03475 0 0 0 0.09457,0.01861 17.857138,18.03475 0 0 0 0.07028,0.01395 17.857138,18.03475 0 0 0 0.08268,0.0155 17.857138,18.03475 0 0 0 0.134874,0.02429 17.857138,18.03475 0 0 0 0.0098,0.0015 17.857138,18.03475 0 0 0 0.140559,0.02429 17.857138,18.03475 0 0 0 0.130226,0.02119 17.857138,18.03475 0 0 0 0.02119,0.0036 17.857138,18.03475 0 0 0 0.173632,0.02687 17.857138,18.03475 0 0 0 0.361217,0.05013 17.857138,18.03475 0 0 0 0.18087,0.02222 l 0.143142,-0.874882 0.266652,0.02842 -0.04341,0.885735 a 17.857138,18.03475 0 0 0 0.0646,0.0062 17.857138,18.03475 0 0 0 0.02636,0.0026 17.857138,18.03475 0 0 0 0.155029,0.01344 17.857138,18.03475 0 0 0 0.105421,0.0083 17.857138,18.03475 0 0 0 0.103352,0.0078 17.857138,18.03475 0 0 0 0.336931,0.02067 17.857138,18.03475 0 0 0 0.117305,0.0057 17.857138,18.03475 0 0 0 0.08165,0.0036 17.857138,18.03475 0 0 0 0.01034,5.15e-4 17.857138,18.03475 0 0 0 0.155028,0.0052 17.857138,18.03475 0 0 0 0.02687,5.18e-4 l 0.08578,-1.521354 h 0.870233 l 0.08682,1.52187 a 17.857138,18.03475 0 0 0 0.07286,-0.0026 17.857138,18.03475 0 0 0 0.01344,-5.16e-4 17.857138,18.03475 0 0 0 0.18242,-0.0072 17.857138,18.03475 0 0 0 0.141076,-0.0067 17.857138,18.03475 0 0 0 0.04082,-0.0021 17.857138,18.03475 0 0 0 0.02687,-0.0016 17.857138,18.03475 0 0 0 0.15503,-0.0098 17.857138,18.03475 0 0 0 0.181901,-0.01292 17.857138,18.03475 0 0 0 0.157096,-0.0124 17.857138,18.03475 0 0 0 0.02481,-0.0021 17.857138,18.03475 0 0 0 0.09147,-0.0083 17.857138,18.03475 0 0 0 0.0124,-10e-4 17.857138,18.03475 0 0 0 0.07752,-0.0078 l -0.04237,-0.885735 0.2651,-0.02842 0.143145,0.875397 a 17.857138,18.03475 0 0 0 0.02945,-0.0036 17.857138,18.03475 0 0 0 0.0584,-0.0067 17.857138,18.03475 0 0 0 0.154512,-0.01964 17.857138,18.03475 0 0 0 0.02635,-0.0036 17.857138,18.03475 0 0 0 0.153995,-0.02119 17.857138,18.03475 0 0 0 0.360701,-0.05529 17.857138,18.03475 0 0 0 0.146762,-0.02429 17.857138,18.03475 0 0 0 0.03307,-0.0057 17.857138,18.03475 0 0 0 0.02687,-0.0046 17.857138,18.03475 0 0 0 0.152448,-0.02739 17.857138,18.03475 0 0 0 0.02687,-0.0052 17.857138,18.03475 0 0 0 0.152445,-0.02894 17.857138,18.03475 0 0 0 0.02635,-0.0052 17.857138,18.03475 0 0 0 0.03049,-0.0062 17.857138,18.03475 0 0 0 0.121957,-0.0248 l -0.134874,-0.872815 0.261482,-0.05374 0.232543,0.848527 a 17.857138,18.03475 0 0 0 0.02377,-0.0052 17.857138,18.03475 0 0 0 0.03514,-0.0083 17.857138,18.03475 0 0 0 0.319876,-0.077 17.857138,18.03475 0 0 0 0.03514,-0.0088 17.857138,18.03475 0 0 0 0.04186,-0.01085 17.857138,18.03475 0 0 0 0.134358,-0.03462 17.857138,18.03475 0 0 0 0.176218,-0.04754 17.857138,18.03475 0 0 0 0.141075,-0.03927 17.857138,18.03475 0 0 0 0.03462,-0.0098 17.857138,18.03475 0 0 0 0.14056,-0.04082 17.857138,18.03475 0 0 0 0.03462,-0.01033 17.857138,18.03475 0 0 0 0.140044,-0.04238 17.857138,18.03475 0 0 0 0.174149,-0.05426 17.857138,18.03475 0 0 0 0.03462,-0.01137 l -0.224277,-0.845942 0.256834,-0.08062 0.315225,0.811319 a 17.857138,18.03475 0 0 0 0.05736,-0.01964 17.857138,18.03475 0 0 0 0.336413,-0.120407 17.857138,18.03475 0 0 0 0.0072,-0.0026 17.857138,18.03475 0 0 0 0.0124,-0.0047 17.857138,18.03475 0 0 0 0.158647,-0.05994 17.857138,18.03475 0 0 0 0.07855,-0.02997 17.857138,18.03475 0 0 0 0.09147,-0.03565 17.857138,18.03475 0 0 0 0.02842,-0.01137 17.857138,18.03475 0 0 0 0.135393,-0.05426 17.857138,18.03475 0 0 0 0.0057,-0.0021 17.857138,18.03475 0 0 0 0.004,-0.0016 17.857138,18.03475 0 0 0 0.13591,-0.05581 17.857138,18.03475 0 0 0 0.0295,-0.01188 17.857138,18.03475 0 0 0 0.0775,-0.03256 17.857138,18.03475 0 0 0 0.0904,-0.03876 17.857138,18.03475 0 0 0 0.0775,-0.03359 17.857138,18.03475 0 0 0 0.0899,-0.03927 l -0.30593,-0.806154 0.24547,-0.109553 0.39222,0.76481 a 17.857138,18.03475 0 0 0 0.0775,-0.03617 17.857138,18.03475 0 0 0 0.003,-0.0015 17.857138,18.03475 0 0 0 0.16122,-0.077 17.857138,18.03475 0 0 0 0.004,-0.0021 17.857138,18.03475 0 0 0 0.3235,-0.160716 17.857138,18.03475 0 0 0 0.004,-0.0021 17.857138,18.03475 0 0 0 0.0594,-0.03049 17.857138,18.03475 0 0 0 0.10284,-0.05323 17.857138,18.03475 0 0 0 0.15813,-0.08372 17.857138,18.03475 0 0 0 0.16071,-0.08733 17.857138,18.03475 0 0 0 0.003,-0.0016 l -0.66869,-1.322401 0.75448,-0.436147 0.8077,1.231447 a 17.857138,18.03475 0 0 0 0.047,-0.02945 17.857138,18.03475 0 0 0 0.0253,-0.01602 17.857138,18.03475 0 0 0 0.12867,-0.08217 17.857138,18.03475 0 0 0 0.0253,-0.01654 17.857138,18.03475 0 0 0 0.12764,-0.08371 17.857138,18.03475 0 0 0 0.0253,-0.01654 17.857138,18.03475 0 0 0 0.047,-0.03152 17.857138,18.03475 0 0 0 0.10438,-0.0708 17.857138,18.03475 0 0 0 0.12661,-0.0863 17.857138,18.03475 0 0 0 0.0243,-0.01705 17.857138,18.03475 0 0 0 0.14986,-0.105418 17.857138,18.03475 0 0 0 0.14831,-0.106455 l -0.44803,-0.696082 0.21394,-0.158647 0.52348,0.640271 a 17.857138,18.03475 0 0 0 0.046,-0.03462 17.857138,18.03475 0 0 0 0.0196,-0.0155 17.857138,18.03475 0 0 0 0.23978,-0.186553 17.857138,18.03475 0 0 0 0.10335,-0.08216 17.857138,18.03475 0 0 0 0.005,-0.0041 17.857138,18.03475 0 0 0 0.0636,-0.05116 17.857138,18.03475 0 0 0 0.0786,-0.06408 17.857138,18.03475 0 0 0 0.063,-0.05219 17.857138,18.03475 0 0 0 0.14005,-0.117306 17.857138,18.03475 0 0 0 0.13952,-0.119372 17.857138,18.03475 0 0 0 0.13798,-0.120406 17.857138,18.03475 0 0 0 0.13643,-0.121439 l -0.50747,-0.632005 0.19844,-0.179316 0.57361,0.568442 a 17.857138,18.03475 0 0 0 0.008,-0.0072 17.857138,18.03475 0 0 0 0.032,-0.02997 17.857138,18.03475 0 0 0 0.0393,-0.03721 17.857138,18.03475 0 0 0 0.093,-0.0894 17.857138,18.03475 0 0 0 0.13178,-0.127643 17.857138,18.03475 0 0 0 0.12971,-0.128672 17.857138,18.03475 0 0 0 0.0388,-0.03876 17.857138,18.03475 0 0 0 0.0904,-0.09198 17.857138,18.03475 0 0 0 0.0377,-0.03876 17.857138,18.03475 0 0 0 0.0894,-0.09302 17.857138,18.03475 0 0 0 0.12609,-0.132808 17.857138,18.03475 0 0 0 0.11834,-0.127643 17.857138,18.03475 0 0 0 0.007,-0.0067 17.857138,18.03475 0 0 0 0.003,-0.0036 17.857138,18.03475 0 0 0 0.11989,-0.131775 l -0.55811,-0.562756 0.1788,-0.197921 0.61495,0.493511 a 17.857138,18.03475 0 0 0 0.38809,-0.463539 17.857138,18.03475 0 0 0 0.11472,-0.143143 17.857138,18.03475 0 0 0 0.007,-0.0083 17.857138,18.03475 0 0 0 0.10646,-0.136427 17.857138,18.03475 0 0 0 0.006,-0.0077 17.857138,18.03475 0 0 0 0.10542,-0.137459 17.857138,18.03475 0 0 0 0.006,-0.0083 17.857138,18.03475 0 0 0 0.11007,-0.146761 17.857138,18.03475 0 0 0 0.0816,-0.110588 17.857138,18.03475 0 0 0 0.0212,-0.02894 l -0.601,-0.491443 0.15864,-0.213939 0.64803,0.416512 a 17.857138,18.03475 0 0 0 0.0124,-0.01757 17.857138,18.03475 0 0 0 5.2e-4,-0.001 17.857138,18.03475 0 0 0 0.0351,-0.05064 17.857138,18.03475 0 0 0 0.0692,-0.100769 17.857138,18.03475 0 0 0 0.0346,-0.05116 17.857138,18.03475 0 0 0 0.0677,-0.100769 17.857138,18.03475 0 0 0 0.0341,-0.05168 17.857138,18.03475 0 0 0 0.0667,-0.101803 17.857138,18.03475 0 0 0 0.0336,-0.05168 17.857138,18.03475 0 0 0 0.0661,-0.102836 17.857138,18.03475 0 0 0 0.0331,-0.05219 17.857138,18.03475 0 0 0 0.0646,-0.102836 17.857138,18.03475 0 0 0 0.0326,-0.05271 17.857138,18.03475 0 0 0 0.003,-0.0041 17.857138,18.03475 0 0 0 0.093,-0.152445 l -1.16685,-0.765328 0.43563,-0.752928 1.23765,0.623737 a 17.857138,18.03475 0 0 0 0.0377,-0.07183 17.857138,18.03475 0 0 0 0.0532,-0.102319 17.857138,18.03475 0 0 0 0.031,-0.06046 17.857138,18.03475 0 0 0 0.016,-0.03152 17.857138,18.03475 0 0 0 0.0667,-0.13281 17.857138,18.03475 0 0 0 0.0811,-0.164846 17.857138,18.03475 0 0 0 0.0501,-0.10387 17.857138,18.03475 0 0 0 0.0294,-0.06201 17.857138,18.03475 0 0 0 0.014,-0.02945 17.857138,18.03475 0 0 0 0.063,-0.135911 17.857138,18.03475 0 0 0 5.2e-4,-0.001 17.857138,18.03475 0 0 0 10e-4,-0.0015 17.857138,18.03475 0 0 0 0.0744,-0.164849 17.857138,18.03475 0 0 0 5.2e-4,-0.001 l -0.65939,-0.338479 0.108,-0.245981 0.69195,0.263033 a 17.857138,18.03475 0 0 0 0.002,-0.0041 17.857138,18.03475 0 0 0 0.0181,-0.04238 17.857138,18.03475 0 0 0 0.0615,-0.147278 17.857138,18.03475 0 0 0 0.009,-0.02222 17.857138,18.03475 0 0 0 0.009,-0.02274 17.857138,18.03475 0 0 0 0.0584,-0.145211 17.857138,18.03475 0 0 0 10e-4,-0.0026 17.857138,18.03475 0 0 0 5.1e-4,-0.0016 17.857138,18.03475 0 0 0 0.0646,-0.164846 17.857138,18.03475 0 0 0 0.002,-0.0052 17.857138,18.03475 0 0 0 0.0294,-0.07648 17.857138,18.03475 0 0 0 0.0103,-0.0279 17.857138,18.03475 0 0 0 0.0506,-0.134877 17.857138,18.03475 0 0 0 0.004,-0.0093 17.857138,18.03475 0 0 0 0.0351,-0.0956 17.857138,18.03475 0 0 0 0.0279,-0.077 17.857138,18.03475 0 0 0 0.016,-0.04599 17.857138,18.03475 0 0 0 0.0351,-0.100251 17.857138,18.03475 0 0 0 0.01,-0.02739 17.857138,18.03475 0 0 0 0.0331,-0.09664 17.857138,18.03475 0 0 0 0.006,-0.01654 17.857138,18.03475 0 0 0 0.0512,-0.152961 17.857138,18.03475 0 0 0 0.002,-0.0047 l -0.6811,-0.264064 0.0842,-0.253733 0.7028,0.185518 a 17.857138,18.03475 0 0 0 0.015,-0.04857 17.857138,18.03475 0 0 0 0.0527,-0.176217 17.857138,18.03475 0 0 0 0.0512,-0.176733 17.857138,18.03475 0 0 0 0.0491,-0.177251 17.857138,18.03475 0 0 0 0.0134,-0.04909 17.857138,18.03475 0 0 0 0.0341,-0.128674 17.857138,18.03475 0 0 0 0.002,-0.0072 17.857138,18.03475 0 0 0 0.0434,-0.171049 17.857138,18.03475 0 0 0 0.0413,-0.167432 17.857138,18.03475 0 0 0 0.003,-0.01137 17.857138,18.03475 0 0 0 10e-4,-0.0036 17.857138,18.03475 0 0 0 0.0408,-0.1757 17.857138,18.03475 0 0 0 0.0326,-0.14366 17.857138,18.03475 0 0 0 0.008,-0.03566 l -0.69557,-0.189136 0.0558,-0.263033 0.71106,0.109554 a 17.857138,18.03475 0 0 0 0.006,-0.02894 17.857138,18.03475 0 0 0 0.008,-0.03876 17.857138,18.03475 0 0 0 0.0305,-0.160714 17.857138,18.03475 0 0 0 0.004,-0.02015 17.857138,18.03475 0 0 0 0.0289,-0.16123 17.857138,18.03475 0 0 0 0.0305,-0.181384 17.857138,18.03475 0 0 0 0.0563,-0.363802 17.857138,18.03475 0 0 0 0.0486,-0.364836 17.857138,18.03475 0 0 0 0.003,-0.02015 17.857138,18.03475 0 0 0 0.0186,-0.16278 l -0.70486,-0.114722 0.0284,-0.266134 0.71262,0.03411 a 17.857138,18.03475 0 0 0 0.007,-0.07958 17.857138,18.03475 0 0 0 0.0124,-0.14366 17.857138,18.03475 0 0 0 0.003,-0.03979 17.857138,18.03475 0 0 0 0.002,-0.02946 17.857138,18.03475 0 0 0 0.0114,-0.153996 17.857138,18.03475 0 0 0 0,-5.16e-4 17.857138,18.03475 0 0 0 0.009,-0.143661 17.857138,18.03475 0 0 0 0.009,-0.163814 17.857138,18.03475 0 0 0 0.001,-0.02015 17.857138,18.03475 0 0 0 5.2e-4,-0.0067 17.857138,18.03475 0 0 0 0.006,-0.132292 17.857138,18.03475 0 0 0 0.002,-0.04496 17.857138,18.03475 0 0 0 0.002,-0.03979 17.857138,18.03475 0 0 0 10e-4,-0.03462 17.857138,18.03475 0 0 0 0.005,-0.146244 17.857138,18.03475 0 0 0 0,-0.0031 l -1.34411,-0.07596 v -0.870232 l 1.34411,-0.07648 a 17.857138,18.03475 0 0 0 -0.009,-0.263549 17.857138,18.03475 0 0 0 -0.009,-0.183969 17.857138,18.03475 0 0 0 -0.0537,-0.734322 l -0.71262,0.03462 -0.0284,-0.266134 0.70538,-0.114205 a 17.857138,18.03475 0 0 0 -0.0274,-0.232544 17.857138,18.03475 0 0 0 -0.0496,-0.364835 17.857138,18.03475 0 0 0 -0.0279,-0.181901 17.857138,18.03475 0 0 0 -0.0605,-0.363286 17.857138,18.03475 0 0 0 -0.0331,-0.181384 17.857138,18.03475 0 0 0 -0.0351,-0.180351 l -0.71106,0.109037 -0.0558,-0.259932 0.69609,-0.189653 a 17.857138,18.03475 0 0 0 -0.0109,-0.04909 17.857138,18.03475 0 0 0 -0.0403,-0.179317 17.857138,18.03475 0 0 0 -0.0398,-0.167432 17.857138,18.03475 0 0 0 -0.003,-0.01189 17.857138,18.03475 0 0 0 -0.002,-0.0093 17.857138,18.03475 0 0 0 -0.0418,-0.167432 17.857138,18.03475 0 0 0 -5.2e-4,-0.0016 17.857138,18.03475 0 0 0 0,-10e-4 17.857138,18.03475 0 0 0 -0.0377,-0.146244 17.857138,18.03475 0 0 0 -0.008,-0.03101 17.857138,18.03475 0 0 0 -0.004,-0.01292 17.857138,18.03475 0 0 0 -0.0444,-0.164848 17.857138,18.03475 0 0 0 -0.0496,-0.17725 17.857138,18.03475 0 0 0 -0.0517,-0.176217 17.857138,18.03475 0 0 0 -0.0532,-0.176216 l -0.70384,0.185518 -0.0827,-0.253731 0.68006,-0.265617 a 17.857138,18.03475 0 0 0 -0.1974,-0.569474 17.857138,18.03475 0 0 0 -0.009,-0.02429 17.857138,18.03475 0 0 0 -0.0553,-0.148312 17.857138,18.03475 0 0 0 -0.13333,-0.342614 17.857138,18.03475 0 0 0 -0.009,-0.02377 17.857138,18.03475 0 0 0 -0.0599,-0.14676 17.857138,18.03475 0 0 0 -0.01,-0.02325 17.857138,18.03475 0 0 0 -0.0615,-0.146244 l -0.69298,0.261999 -0.108,-0.242362 0.66043,-0.341065 a 17.857138,18.03475 0 0 0 -0.0171,-0.03876 17.857138,18.03475 0 0 0 -0.0165,-0.03669 17.857138,18.03475 0 0 0 -0.06,-0.130225 17.857138,18.03475 0 0 0 -0.017,-0.03669 17.857138,18.03475 0 0 0 -0.061,-0.129708 17.857138,18.03475 0 0 0 -0.0176,-0.03669 17.857138,18.03475 0 0 0 -0.004,-0.0067 17.857138,18.03475 0 0 0 -0.0765,-0.158647 17.857138,18.03475 0 0 0 -0.0636,-0.128674 17.857138,18.03475 0 0 0 -0.0181,-0.03566 17.857138,18.03475 0 0 0 -0.0651,-0.128158 17.857138,18.03475 0 0 0 -0.0181,-0.03566 17.857138,18.03475 0 0 0 -0.03,-0.05736 17.857138,18.03475 0 0 0 -0.0553,-0.10542 l -1.23817,0.624251 -0.43563,-0.754475 1.16685,-0.764812 a 17.857138,18.03475 0 0 0 -0.017,-0.02842 17.857138,18.03475 0 0 0 -0.0243,-0.04031 17.857138,18.03475 0 0 0 -0.0233,-0.03721 17.857138,18.03475 0 0 0 -0.0734,-0.118856 17.857138,18.03475 0 0 0 -0.0982,-0.155546 17.857138,18.03475 0 0 0 -0.2005,-0.306958 17.857138,18.03475 0 0 0 -0.10284,-0.152446 17.857138,18.03475 0 0 0 -0.10439,-0.150895 l -0.65009,0.417546 -0.15503,-0.217041 0.59997,-0.489376 a 17.857138,18.03475 0 0 0 -0.0729,-0.09922 17.857138,18.03475 0 0 0 -0.0155,-0.02119 17.857138,18.03475 0 0 0 -0.0537,-0.07235 17.857138,18.03475 0 0 0 -0.0558,-0.07441 17.857138,18.03475 0 0 0 -0.016,-0.02119 17.857138,18.03475 0 0 0 -0.0956,-0.1245399 17.857138,18.03475 0 0 0 -0.0946,-0.120923 17.857138,18.03475 0 0 0 -0.0181,-0.023771 17.857138,18.03475 0 0 0 -0.0563,-0.070797 17.857138,18.03475 0 0 0 -0.0899,-0.1126545 17.857138,18.03475 0 0 0 -0.0248,-0.030489 17.857138,18.03475 0 0 0 -0.0589,-0.07183 17.857138,18.03475 0 0 0 -0.0579,-0.069763 17.857138,18.03475 0 0 0 -0.0594,-0.071313 17.857138,18.03475 0 0 0 -0.0584,-0.069246 17.857138,18.03475 0 0 0 -0.008,-0.00879 17.857138,18.03475 0 0 0 -0.11162,-0.1302245 l -0.61547,0.4945433 -0.1788,-0.1979205 0.55862,-0.56379 a 17.857138,18.03475 0 0 0 -0.0692,-0.076998 17.857138,18.03475 0 0 0 -0.0915,-0.099735 17.857138,18.03475 0 0 0 -0.0326,-0.03514 17.857138,18.03475 0 0 0 -0.0925,-0.098702 17.857138,18.03475 0 0 0 -0.0331,-0.034623 17.857138,18.03475 0 0 0 -0.0935,-0.097669 17.857138,18.03475 0 0 0 -0.0331,-0.034623 17.857138,18.03475 0 0 0 -0.0946,-0.097152 17.857138,18.03475 0 0 0 -0.0336,-0.034106 17.857138,18.03475 0 0 0 -0.0956,-0.095601 17.857138,18.03475 0 0 0 -0.13074,-0.1286743 17.857138,18.03475 0 0 0 -0.108,-0.1043866 17.857138,18.03475 0 0 0 -0.0232,-0.022737 17.857138,18.03475 0 0 0 -0.0351,-0.03359 17.857138,18.03475 0 0 0 -0.0982,-0.092501 l -0.57516,0.5684409 -0.19689,-0.1788004 0.50798,-0.6320028 a 17.857138,18.03475 0 0 0 -0.0413,-0.037724 17.857138,18.03475 0 0 0 -5.1e-4,0 17.857138,18.03475 0 0 0 -0.12093,-0.107487 17.857138,18.03475 0 0 0 -0.016,-0.013953 17.857138,18.03475 0 0 0 -0.13797,-0.1198893 17.857138,18.03475 0 0 0 -5.2e-4,0 17.857138,18.03475 0 0 0 -0.11834,-0.100769 17.857138,18.03475 0 0 0 -0.0212,-0.018087 17.857138,18.03475 0 0 0 -0.14004,-0.116789 17.857138,18.03475 0 0 0 -5.2e-4,0 17.857138,18.03475 0 0 0 -0.11523,-0.094051 17.857138,18.03475 0 0 0 -0.0269,-0.021704 17.857138,18.03475 0 0 0 -0.14262,-0.113688 17.857138,18.03475 0 0 0 -5.2e-4,-5.167e-4 17.857138,18.03475 0 0 0 -0.14366,-0.1121381 17.857138,18.03475 0 0 0 -5.2e-4,-5.167e-4 17.857138,18.03475 0 0 0 -0.14469,-0.1111041 17.857138,18.03475 0 0 0 -5.2e-4,0 l -0.52348,0.639754 -0.21704,-0.1555459 0.44958,-0.6996991 a 17.857138,18.03475 0 0 0 -0.003,-0.00207 17.857138,18.03475 0 0 0 -0.0677,-0.049093 17.857138,18.03475 0 0 0 -0.0222,-0.01602 17.857138,18.03475 0 0 0 -0.12712,-0.089917 17.857138,18.03475 0 0 0 -0.0811,-0.056844 17.857138,18.03475 0 0 0 -0.0284,-0.019637 17.857138,18.03475 0 0 0 -0.12145,-0.083199 17.857138,18.03475 0 0 0 -0.001,-5.168e-4 17.857138,18.03475 0 0 0 -0.0692,-0.047026 17.857138,18.03475 0 0 0 -0.0315,-0.020671 17.857138,18.03475 0 0 0 -0.12092,-0.080098 17.857138,18.03475 0 0 0 -0.15296,-0.099735 17.857138,18.03475 0 0 0 -0.15451,-0.098185 l -0.80822,1.2329996 -0.75448,-0.4345988 0.66869,-1.3249835 a 17.857138,18.03475 0 0 0 -0.0755,-0.041341 17.857138,18.03475 0 0 0 -0.0636,-0.034623 17.857138,18.03475 0 0 0 -0.0351,-0.018603 17.857138,18.03475 0 0 0 -0.12402,-0.066146 17.857138,18.03475 0 0 0 -0.002,-0.00103 17.857138,18.03475 0 0 0 -0.003,-0.00155 17.857138,18.03475 0 0 0 -0.15193,-0.079065 17.857138,18.03475 0 0 0 -0.007,-0.00362 17.857138,18.03475 0 0 0 -0.0982,-0.050126 17.857138,18.03475 0 0 0 -0.0646,-0.032556 17.857138,18.03475 0 0 0 -0.0326,-0.01602 17.857138,18.03475 0 0 0 -0.13126,-0.064595 17.857138,18.03475 0 0 0 -0.16019,-0.076998 17.857138,18.03475 0 0 0 -0.005,-0.00207 17.857138,18.03475 0 0 0 -0.0997,-0.047026 l -0.39326,0.7648112 -0.24443,-0.1090372 0.3049,-0.8066691 a 17.857138,18.03475 0 0 0 -0.0362,-0.01602 17.857138,18.03475 0 0 0 -0.0191,-0.00878 17.857138,18.03475 0 0 0 -0.0109,-0.00465 17.857138,18.03475 0 0 0 -0.0181,-0.00775 17.857138,18.03475 0 0 0 -0.14934,-0.064596 17.857138,18.03475 0 0 0 -0.15813,-0.066146 17.857138,18.03475 0 0 0 -0.0103,-0.00413 17.857138,18.03475 0 0 0 -0.158645,-0.064596 17.857138,18.03475 0 0 0 -0.01034,-0.00413 17.857138,18.03475 0 0 0 -0.159163,-0.063045 17.857138,18.03475 0 0 0 -0.01085,-0.00413 17.857138,18.03475 0 0 0 -0.341583,-0.1286743 17.857138,18.03475 0 0 0 -0.160713,-0.058394 17.857138,18.03475 0 0 0 -0.01085,-0.00362 17.857138,18.03475 0 0 0 -0.161748,-0.056327 L 25.270172,3.5793192 25.014891,3.4987042 25.238133,2.651211 a 17.857138,18.03475 0 0 0 -0.0093,-0.0031 17.857138,18.03475 0 0 0 -0.04909,-0.015503 17.857138,18.03475 0 0 0 -0.125058,-0.038757 17.857138,18.03475 0 0 0 -0.141076,-0.042892 17.857138,18.03475 0 0 0 -0.03359,-0.010335 17.857138,18.03475 0 0 0 -0.04909,-0.01447 17.857138,18.03475 0 0 0 -0.12609,-0.036174 17.857138,18.03475 0 0 0 -0.140044,-0.039274 17.857138,18.03475 0 0 0 -0.03566,-0.010335 17.857138,18.03475 0 0 0 -0.04961,-0.013436 17.857138,18.03475 0 0 0 -0.126606,-0.03359 17.857138,18.03475 0 0 0 -0.04961,-0.012919 17.857138,18.03475 0 0 0 -0.0031,-0.00103 17.857138,18.03475 0 0 0 -0.15348,-0.039274 17.857138,18.03475 0 0 0 -0.02015,-0.00517 17.857138,18.03475 0 0 0 -0.12764,-0.031006 17.857138,18.03475 0 0 0 -0.04961,-0.011886 17.857138,18.03475 0 0 0 -0.12764,-0.029972 17.857138,18.03475 0 0 0 -0.05013,-0.011369 l -0.232541,0.8516279 -0.259935,-0.055811 0.134361,-0.8733316 a 17.857138,18.03475 0 0 0 -0.06098,-0.012402 17.857138,18.03475 0 0 0 -0.1788,-0.03514 17.857138,18.03475 0 0 0 -0.179319,-0.03359 17.857138,18.03475 0 0 0 -0.179832,-0.031522 17.857138,18.03475 0 0 0 -0.168984,-0.028422 17.857138,18.03475 0 0 0 -0.01085,-0.00155 17.857138,18.03475 0 0 0 -0.0031,-5.167e-4 17.857138,18.03475 0 0 0 -0.347266,-0.051676 17.857138,18.03475 0 0 0 -0.01033,-0.00155 17.857138,18.03475 0 0 0 -0.0062,-0.00103 17.857138,18.03475 0 0 0 -0.174667,-0.022737 17.857138,18.03475 0 0 0 -0.180867,-0.022221 l -0.143661,0.8764323 -0.265099,-0.026872 0.04341,-0.8893514 a 17.857138,18.03475 0 0 0 -0.06408,-0.0062 17.857138,18.03475 0 0 0 -0.02429,-0.00207 17.857138,18.03475 0 0 0 -0.157615,-0.013953 17.857138,18.03475 0 0 0 -0.02429,-0.00207 17.857138,18.03475 0 0 0 -0.157615,-0.011886 17.857138,18.03475 0 0 0 -0.180867,-0.012402 17.857138,18.03475 0 0 0 -10e-4,0 17.857138,18.03475 0 0 0 -0.02377,-0.00155 17.857138,18.03475 0 0 0 -0.06666,-0.00362 17.857138,18.03475 0 0 0 -0.115755,-0.0062 17.857138,18.03475 0 0 0 -0.157615,-0.00723 17.857138,18.03475 0 0 0 -0.02429,-0.00103 17.857138,18.03475 0 0 0 -0.04909,-0.00155 17.857138,18.03475 0 0 0 -0.133326,-0.00465 l -0.08682,1.5203204 h -0.870233 z" />
    <path
       id="rect67"
       style="font-variation-settings:normal;opacity:1;vector-effect:none;fill:#000000;fill-opacity:1;fill-rule:evenodd;stroke:#000000;stroke-width:0.52916666;stroke-linecap:butt;stroke-linejoin:miter;stroke-miterlimit:4;stroke-dasharray:none;stroke-dashoffset:0;stroke-opacity:1;stop-color:#000000;stop-opacity:1"
       d="M 17.708996,0.14769515 H 0.13229166 V 39.570611 H 17.914152 c -0.505398,-0.01953 2.592262,0.07483 3.600813,0.02635 -0.250085,0.01373 -0.765512,-0.0053 -3.600813,-0.02739 C 7.8793008,38.567565 0.23238602,30.043228 0.23254394,19.859153 0.23269532,9.7444479 7.7770714,1.2723139 17.708996,0.17508366 20.386973,0.11607294 20.184371,0.03382943 21.780582,0.15027897 31.811044,1.1555667 39.455037,9.6770419 39.454955,19.859153 c -4.5e-5,10.173481 -7.631698,18.69241 -17.654736,19.707326 -0.06599,0.0088 -0.102433,0.01222 -0.145727,0.01757 0.04796,-0.0046 0.121625,-0.0074 0.145727,-0.01344 H 39.555208 V 0.14769515 H 21.780582 c 3.863488,0.0273919 -2.216397,-0.17271391 -4.071586,0 z M 21.654492,39.584047 c -0.04592,0.0044 -0.07481,0.0098 -0.139527,0.01291 0.04348,-0.0024 0.10228,-0.0083 0.139527,-0.01291 z"
       sodipodi:nodetypes="cccccccccccccccccccc" />
    <g
       id="g1033"
       transform="translate(-0.13423697,-0.01096028)">
      <circle
         transform="rotate(-10.240745)"
         style="fill:#008000;fill-rule:evenodd;stroke:none;stroke-width:0.0176764"
         id="center"
         cx="16.008553"
         cy="23.068274"
         r="0.92481577" />
      <g
         id="numbers"
         transform="matrix(0.53818049,0,0,0.53818049,-56.826586,-1.6773902)"
         style="fill:#00ff00;stroke:#00ff00">
        <text
           xml:space="preserve"
           style="font-style:normal;font-variant:normal;font-weight:normal;font-stretch:normal;font-size:16px;line-height:110%;font-family:Ubuntu;-inkscape-font-specification:Ubuntu;font-variant-ligatures:normal;font-variant-position:normal;font-variant-caps:normal;font-variant-numeric:normal;font-variant-alternates:normal;font-variant-east-asian:normal;font-feature-settings:normal;text-indent:0;text-align:start;text-decoration:none;text-decoration-line:none;text-decoration-style:solid;text-decoration-color:#000000;letter-spacing:0px;word-spacing:0px;text-transform:none;writing-mode:lr-tb;direction:ltr;text-orientation:mixed;dominant-baseline:auto;baseline-shift:baseline;text-anchor:start;white-space:normal;shape-padding:0;shape-margin:0;inline-size:0;opacity:1;vector-effect:none;fill:#00ff00;fill-opacity:1;stroke:#00ff00;stroke-width:0.999999px;stroke-linecap:butt;stroke-linejoin:miter;stroke-miterlimit:4;stroke-dasharray:none;stroke-dashoffset:0;stroke-opacity:1;stop-color:#000000;stop-opacity:1"
           x="136.24832"
           y="66.114403"
           id="text308"
           transform="matrix(0.42496015,0,0,0.42496015,80.634594,-12.630299)"><tspan
             sodipodi:role="line"
             id="tspan306"
             x="136.24832"
             y="66.114403">12</tspan></text>
        <text
           xml:space="preserve"
           style="font-style:normal;font-variant:normal;font-weight:normal;font-stretch:normal;font-size:16px;line-height:110%;font-family:Ubuntu;-inkscape-font-specification:Ubuntu;font-variant-ligatures:normal;font-variant-position:normal;font-variant-caps:normal;font-variant-numeric:normal;font-variant-alternates:normal;font-variant-east-asian:normal;font-feature-settings:normal;text-indent:0;text-align:start;text-decoration:none;text-decoration-line:none;text-decoration-style:solid;text-decoration-color:#000000;letter-spacing:0px;word-spacing:0px;text-transform:none;writing-mode:lr-tb;direction:ltr;text-orientation:mixed;dominant-baseline:auto;baseline-shift:baseline;text-anchor:start;white-space:normal;shape-padding:0;shape-margin:0;inline-size:0;vector-effect:none;fill:#00ff00;fill-opacity:1;stroke:#00ff00;stroke-width:0.999999px;stroke-linecap:butt;stroke-linejoin:miter;stroke-miterlimit:4;stroke-dasharray:none;stroke-dashoffset:0;stroke-opacity:1;stop-color:#000000"
           x="136.24832"
           y="66.114403"
           id="text308-3"
           transform="matrix(0.42496015,0,0,0.42496015,96.266937,-9.1804328)"><tspan
             sodipodi:role="line"
             id="tspan306-6"
             x="136.24832"
             y="66.114403">1</tspan></text>
        <text
           xml:space="preserve"
           style="font-style:normal;font-variant:normal;font-weight:normal;font-stretch:normal;font-size:16px;line-height:110%;font-family:Ubuntu;-inkscape-font-specification:Ubuntu;font-variant-ligatures:normal;font-variant-position:normal;font-variant-caps:normal;font-variant-numeric:normal;font-variant-alternates:normal;font-variant-east-asian:normal;font-feature-settings:normal;text-indent:0;text-align:start;text-decoration:none;text-decoration-line:none;text-decoration-style:solid;text-decoration-color:#000000;letter-spacing:0px;word-spacing:0px;text-transform:none;writing-mode:lr-tb;direction:ltr;text-orientation:mixed;dominant-baseline:auto;baseline-shift:baseline;text-anchor:start;white-space:normal;shape-padding:0;shape-margin:0;inline-size:0;vector-effect:none;fill:#00ff00;fill-opacity:1;stroke:#00ff00;stroke-width:0.999999px;stroke-linecap:butt;stroke-linejoin:miter;stroke-miterlimit:4;stroke-dasharray:none;stroke-dashoffset:0;stroke-opacity:1;stop-color:#000000"
           x="136.24832"
           y="66.114403"
           id="text308-7"
           transform="matrix(0.42496015,0,0,0.42496015,106.594,0.05132221)"><tspan
             sodipodi:role="line"
             id="tspan306-5"
             x="136.24832"
             y="66.114403">2</tspan></text>
        <text
           xml:space="preserve"
           style="font-style:normal;font-variant:normal;font-weight:normal;font-stretch:normal;font-size:16px;line-height:110%;font-family:Ubuntu;-inkscape-font-specification:Ubuntu;font-variant-ligatures:normal;font-variant-position:normal;font-variant-caps:normal;font-variant-numeric:normal;font-variant-alternates:normal;font-variant-east-asian:normal;font-feature-settings:normal;text-indent:0;text-align:start;text-decoration:none;text-decoration-line:none;text-decoration-style:solid;text-decoration-color:#000000;letter-spacing:0px;word-spacing:0px;text-transform:none;writing-mode:lr-tb;direction:ltr;text-orientation:mixed;dominant-baseline:auto;baseline-shift:baseline;text-anchor:start;white-space:normal;shape-padding:0;shape-margin:0;inline-size:0;vector-effect:none;fill:#00ff00;fill-opacity:1;stroke:#00ff00;stroke-width:0.999999px;stroke-linecap:butt;stroke-linejoin:miter;stroke-miterlimit:4;stroke-dasharray:none;stroke-dashoffset:0;stroke-opacity:1;stop-color:#000000"
           x="136.24832"
           y="66.114403"
           id="text308-35"
           transform="matrix(0.42496015,0,0,0.42496015,110.75638,14.531487)"><tspan
             sodipodi:role="line"
             id="tspan306-62"
             x="136.24832"
             y="66.114403">3</tspan></text>
        <text
           xml:space="preserve"
           style="font-style:normal;font-variant:normal;font-weight:normal;font-stretch:normal;font-size:16px;line-height:110%;font-family:Ubuntu;-inkscape-font-specification:Ubuntu;font-variant-ligatures:normal;font-variant-position:normal;font-variant-caps:normal;font-variant-numeric:normal;font-variant-alternates:normal;font-variant-east-asian:normal;font-feature-settings:normal;text-indent:0;text-align:start;text-decoration:none;text-decoration-line:none;text-decoration-style:solid;text-decoration-color:#000000;letter-spacing:0px;word-spacing:0px;text-transform:none;writing-mode:lr-tb;direction:ltr;text-orientation:mixed;dominant-baseline:auto;baseline-shift:baseline;text-anchor:start;white-space:normal;shape-padding:0;shape-margin:0;inline-size:0;vector-effect:none;fill:#00ff00;fill-opacity:1;stroke:#00ff00;stroke-width:0.999999px;stroke-linecap:butt;stroke-linejoin:miter;stroke-miterlimit:4;stroke-dasharray:none;stroke-dashoffset:0;stroke-opacity:1;stop-color:#000000"
           x="136.24832"
           y="66.114403"
           id="text308-9"
           transform="matrix(0.42496015,0,0,0.42496015,106.60146,27.996675)"><tspan
             sodipodi:role="line"
             id="tspan306-1"
             x="136.24832"
             y="66.114403">4</tspan></text>
        <text
           xml:space="preserve"
           style="font-style:normal;font-variant:normal;font-weight:normal;font-stretch:normal;font-size:16px;line-height:110%;font-family:Ubuntu;-inkscape-font-specification:Ubuntu;font-variant-ligatures:normal;font-variant-position:normal;font-variant-caps:normal;font-variant-numeric:normal;font-variant-alternates:normal;font-variant-east-asian:normal;font-feature-settings:normal;text-indent:0;text-align:start;text-decoration:none;text-decoration-line:none;text-decoration-style:solid;text-decoration-color:#000000;letter-spacing:0px;word-spacing:0px;text-transform:none;writing-mode:lr-tb;direction:ltr;text-orientation:mixed;dominant-baseline:auto;baseline-shift:baseline;text-anchor:start;white-space:normal;shape-padding:0;shape-margin:0;inline-size:0;vector-effect:none;fill:#00ff00;fill-opacity:1;stroke:#00ff00;stroke-width:0.999999px;stroke-linecap:butt;stroke-linejoin:miter;stroke-miterlimit:4;stroke-dasharray:none;stroke-dashoffset:0;stroke-opacity:1;stop-color:#000000"
           x="136.24832"
           y="66.114403"
           id="text308-2"
           transform="matrix(0.42496015,0,0,0.42496015,96.29144,37.876661)"><tspan
             sodipodi:role="line"
             id="tspan306-7"
             x="136.24832"
             y="66.114403">5</tspan></text>
        <text
           xml:space="preserve"
           style="font-style:normal;font-variant:normal;font-weight:normal;font-stretch:normal;font-size:16px;line-height:110%;font-family:Ubuntu;-inkscape-font-specification:Ubuntu;font-variant-ligatures:normal;font-variant-position:normal;font-variant-caps:normal;font-variant-numeric:normal;font-variant-alternates:normal;font-variant-east-asian:normal;font-feature-settings:normal;text-indent:0;text-align:start;text-decoration:none;text-decoration-line:none;text-decoration-style:solid;text-decoration-color:#000000;letter-spacing:0px;word-spacing:0px;text-transform:none;writing-mode:lr-tb;direction:ltr;text-orientation:mixed;dominant-baseline:auto;baseline-shift:baseline;text-anchor:start;white-space:normal;shape-padding:0;shape-margin:0;inline-size:0;vector-effect:none;fill:#00ff00;fill-opacity:1;stroke:#00ff00;stroke-width:0.999999px;stroke-linecap:butt;stroke-linejoin:miter;stroke-miterlimit:4;stroke-dasharray:none;stroke-dashoffset:0;stroke-opacity:1;stop-color:#000000"
           x="136.24832"
           y="66.114403"
           id="text308-0"
           transform="matrix(0.42496015,0,0,0.42496015,82.677726,41.175221)"><tspan
             sodipodi:role="line"
             id="tspan306-9"
             x="136.24832"
             y="66.114403">6</tspan></text>
        <text
           xml:space="preserve"
           style="font-style:normal;font-variant:normal;font-weight:normal;font-stretch:normal;font-size:16px;line-height:110%;font-family:Ubuntu;-inkscape-font-specification:Ubuntu;font-variant-ligatures:normal;font-variant-position:normal;font-variant-caps:normal;font-variant-numeric:normal;font-variant-alternates:normal;font-variant-east-asian:normal;font-feature-settings:normal;text-indent:0;text-align:start;text-decoration:none;text-decoration-line:none;text-decoration-style:solid;text-decoration-color:#000000;letter-spacing:0px;word-spacing:0px;text-transform:none;writing-mode:lr-tb;direction:ltr;text-orientation:mixed;dominant-baseline:auto;baseline-shift:baseline;text-anchor:start;white-space:normal;shape-padding:0;shape-margin:0;inline-size:0;vector-effect:none;fill:#00ff00;fill-opacity:1;stroke:#00ff00;stroke-width:0.999999px;stroke-linecap:butt;stroke-linejoin:miter;stroke-miterlimit:4;stroke-dasharray:none;stroke-dashoffset:0;stroke-opacity:1;stop-color:#000000"
           x="136.24832"
           y="66.114403"
           id="text308-36"
           transform="matrix(0.42496015,0,0,0.42496015,69.819326,37.736543)"><tspan
             sodipodi:role="line"
             id="tspan306-0"
             x="136.24832"
             y="66.114403">7</tspan></text>
        <text
           xml:space="preserve"
           style="font-style:normal;font-variant:normal;font-weight:normal;font-stretch:normal;font-size:16px;line-height:110%;font-family:Ubuntu;-inkscape-font-specification:Ubuntu;font-variant-ligatures:normal;font-variant-position:normal;font-variant-caps:normal;font-variant-numeric:normal;font-variant-alternates:normal;font-variant-east-asian:normal;font-feature-settings:normal;text-indent:0;text-align:start;text-decoration:none;text-decoration-line:none;text-decoration-style:solid;text-decoration-color:#000000;letter-spacing:0px;word-spacing:0px;text-transform:none;writing-mode:lr-tb;direction:ltr;text-orientation:mixed;dominant-baseline:auto;baseline-shift:baseline;text-anchor:start;white-space:normal;shape-padding:0;shape-margin:0;inline-size:0;vector-effect:none;fill:#00ff00;fill-opacity:1;stroke:#00ff00;stroke-width:0.999999px;stroke-linecap:butt;stroke-linejoin:miter;stroke-miterlimit:4;stroke-dasharray:none;stroke-dashoffset:0;stroke-opacity:1;stop-color:#000000"
           x="136.24832"
           y="66.114403"
           id="text308-6"
           transform="matrix(0.42496015,0,0,0.42496015,59.088022,28.355824)"><tspan
             sodipodi:role="line"
             id="tspan306-2"
             x="136.24832"
             y="66.114403">8</tspan></text>
        <text
           xml:space="preserve"
           style="font-style:normal;font-variant:normal;font-weight:normal;font-stretch:normal;font-size:16px;line-height:110%;font-family:Ubuntu;-inkscape-font-specification:Ubuntu;font-variant-ligatures:normal;font-variant-position:normal;font-variant-caps:normal;font-variant-numeric:normal;font-variant-alternates:normal;font-variant-east-asian:normal;font-feature-settings:normal;text-indent:0;text-align:start;text-decoration:none;text-decoration-line:none;text-decoration-style:solid;text-decoration-color:#000000;letter-spacing:0px;word-spacing:0px;text-transform:none;writing-mode:lr-tb;direction:ltr;text-orientation:mixed;dominant-baseline:auto;baseline-shift:baseline;text-anchor:start;white-space:normal;shape-padding:0;shape-margin:0;inline-size:0;vector-effect:none;fill:#00ff00;fill-opacity:1;stroke:#00ff00;stroke-width:0.999999px;stroke-linecap:butt;stroke-linejoin:miter;stroke-miterlimit:4;stroke-dasharray:none;stroke-dashoffset:0;stroke-opacity:1;stop-color:#000000"
           x="136.24832"
           y="66.114403"
           id="text308-61"
           transform="matrix(0.42496015,0,0,0.42496015,55.194853,14.071878)"><tspan
             sodipodi:role="line"
             id="tspan306-8"
             x="136.24832"
             y="66.114403">9</tspan></text>
        <text
           xml:space="preserve"
           style="font-style:normal;font-variant:normal;font-weight:normal;font-stretch:normal;font-size:16px;line-height:110%;font-family:Ubuntu;-inkscape-font-specification:Ubuntu;font-variant-ligatures:normal;font-variant-position:normal;font-variant-caps:normal;font-variant-numeric:normal;font-variant-alternates:normal;font-variant-east-asian:normal;font-feature-settings:normal;text-indent:0;text-align:start;text-decoration:none;text-decoration-line:none;text-decoration-style:solid;text-decoration-color:#000000;letter-spacing:0px;word-spacing:0px;text-transform:none;writing-mode:lr-tb;direction:ltr;text-orientation:mixed;dominant-baseline:auto;baseline-shift:baseline;text-anchor:start;white-space:normal;shape-padding:0;shape-margin:0;inline-size:0;vector-effect:none;fill:#00ff00;fill-opacity:1;stroke:#00ff00;stroke-width:0.999999px;stroke-linecap:butt;stroke-linejoin:miter;stroke-miterlimit:4;stroke-dasharray:none;stroke-dashoffset:0;stroke-opacity:1;stop-color:#000000"
           x="136.24832"
           y="66.114403"
           id="text308-79"
           transform="matrix(0.42496015,0,0,0.42496015,58.337189,0.90882874)"><tspan
             sodipodi:role="line"
             id="tspan306-20"
             x="136.24832"
             y="66.114403">10</tspan></text>
        <text
           xml:space="preserve"
           style="font-style:normal;font-variant:normal;font-weight:normal;font-stretch:normal;font-size:16px;line-height:110%;font-family:Ubuntu;-inkscape-font-specification:Ubuntu;font-variant-ligatures:normal;font-variant-position:normal;font-variant-caps:normal;font-variant-numeric:normal;font-variant-alternates:normal;font-variant-east-asian:normal;font-feature-settings:normal;text-indent:0;text-align:start;text-decoration:none;text-decoration-line:none;text-decoration-style:solid;text-decoration-color:#000000;letter-spacing:0px;word-spacing:0px;text-transform:none;writing-mode:lr-tb;direction:ltr;text-orientation:mixed;dominant-baseline:auto;baseline-shift:baseline;text-anchor:start;white-space:normal;shape-padding:0;shape-margin:0;inline-size:0;vector-effect:none;fill:#00ff00;fill-opacity:1;stroke:#00ff00;stroke-width:0.999999px;stroke-linecap:butt;stroke-linejoin:miter;stroke-miterlimit:4;stroke-dasharray:none;stroke-dashoffset:0;stroke-opacity:1;stop-color:#000000"
           x="136.24832"
           y="66.114403"
           id="text308-23"
           transform="matrix(0.42496015,0,0,0.42496015,67.578088,-8.7688237)"><tspan
             sodipodi:role="line"
             id="tspan306-75"
             x="136.24832"
             y="66.114403">11</tspan></text>
      </g>
    </g>
  </g>
</svg>
